<?xml version="1.0" encoding="UTF-8"?>
<svg xmlns="http://www.w3.org/2000/svg" xmlns:xlink="http://www.w3.org/1999/xlink" width="15px" height="15px" viewBox="0 0 15 15" version="1.1">
<g id="surface1">
<path style=" stroke:none;fill-rule:nonzero;fill:rgb(0%,0%,0%);fill-opacity:1;" d="M 14.988281 7.636719 C 14.589844 7.429688 14.15625 7.394531 13.722656 7.339844 C 12.238281 7.175781 10.746094 7.136719 9.257812 7.113281 C 9.164062 7.113281 9.117188 7.089844 9.082031 6.996094 C 8.835938 6.28125 8.230469 5.839844 7.503906 5.839844 C 6.785156 5.847656 6.175781 6.28125 5.933594 6.984375 C 5.90625 7.078125 5.863281 7.113281 5.765625 7.113281 C 4.640625 7.125 3.511719 7.167969 2.386719 7.246094 C 1.722656 7.292969 1.054688 7.347656 0.410156 7.5 C 0.261719 7.527344 0.128906 7.582031 0 7.660156 C 0.0351562 5.0625 1.03125 2.972656 3.105469 1.433594 C 5.601562 -0.410156 8.957031 -0.445312 11.484375 1.136719 C 14.167969 2.824219 15.089844 5.636719 14.988281 7.636719 Z M 14.988281 7.636719 "/>
<path style=" stroke:none;fill-rule:nonzero;fill:rgb(0%,0%,0%);fill-opacity:1;" d="M 4.660156 7.933594 C 5.019531 7.933594 5.386719 7.933594 5.746094 7.933594 C 5.847656 7.933594 5.902344 7.945312 5.941406 8.050781 C 6.207031 8.742188 6.808594 9.167969 7.523438 9.164062 C 8.230469 9.164062 8.808594 8.742188 9.074219 8.027344 C 9.105469 7.957031 9.140625 7.925781 9.214844 7.933594 C 9.984375 7.957031 10.746094 7.972656 11.507812 8.011719 C 12.199219 8.039062 12.886719 8.082031 13.570312 8.15625 C 13.980469 8.203125 14.386719 8.25 14.777344 8.371094 C 14.90625 8.414062 14.941406 8.472656 14.929688 8.605469 C 14.527344 11.519531 12.28125 14.027344 9.421875 14.761719 C 5.410156 15.777344 1.402344 13.472656 0.269531 9.480469 C 0.183594 9.175781 0.121094 8.859375 0.0703125 8.542969 C 0.046875 8.449219 0.105469 8.417969 0.175781 8.390625 C 0.410156 8.300781 0.65625 8.261719 0.902344 8.226562 C 1.523438 8.132812 2.144531 8.085938 2.777344 8.050781 C 3.398438 8.015625 4.03125 7.988281 4.660156 7.957031 Z M 13.988281 9.042969 C 13.800781 9.011719 13.621094 8.988281 13.441406 8.972656 C 12.253906 8.855469 11.058594 8.8125 9.855469 8.769531 C 9.714844 8.765625 9.636719 8.808594 9.558594 8.925781 C 8.542969 10.382812 6.417969 10.359375 5.425781 8.882812 C 5.378906 8.800781 5.320312 8.765625 5.222656 8.769531 C 3.886719 8.824219 2.542969 8.847656 1.21875 9.023438 C 1.054688 9.046875 1.03125 9.082031 1.074219 9.234375 C 1.347656 10.230469 1.808594 11.144531 2.519531 11.90625 C 4.171875 13.710938 6.234375 14.441406 8.648438 14.0625 C 10.3125 13.800781 11.671875 12.960938 12.726562 11.636719 C 13.339844 10.875 13.757812 10.007812 13.988281 9.042969 Z M 13.988281 9.042969 "/>
<path style=" stroke:none;fill-rule:nonzero;fill:rgb(0%,0%,0%);fill-opacity:1;" d="M 8.683594 7.511719 C 8.691406 7.933594 8.472656 8.332031 8.097656 8.554688 C 7.734375 8.765625 7.277344 8.765625 6.902344 8.542969 C 6.539062 8.320312 6.324219 7.921875 6.339844 7.488281 C 6.339844 6.855469 6.871094 6.332031 7.519531 6.332031 C 8.15625 6.339844 8.683594 6.867188 8.683594 7.511719 Z M 8.683594 7.511719 "/>
</g>
</svg>
