<?xml version="1.0" encoding="UTF-8"?>
<svg xmlns="http://www.w3.org/2000/svg" xmlns:xlink="http://www.w3.org/1999/xlink" width="15px" height="15px" viewBox="0 0 15 15" version="1.1">
<g id="surface1">
<path style=" stroke:none;fill-rule:nonzero;fill:rgb(100%,10.196078%,10.196078%);fill-opacity:1;" d="M 14.355469 7.5 C 14.355469 11.285156 11.285156 14.355469 7.5 14.355469 C 3.714844 14.355469 0.644531 11.285156 0.644531 7.5 C 0.644531 3.714844 3.714844 0.644531 7.5 0.644531 C 11.285156 0.644531 14.355469 3.714844 14.355469 7.5 Z M 14.355469 7.5 "/>
<path style=" stroke:none;fill-rule:nonzero;fill:rgb(83.921569%,3.529412%,3.529412%);fill-opacity:1;" d="M 14.355469 7.5 C 14.355469 4.605469 11.285156 2.25 7.5 2.25 C 3.714844 2.25 0.644531 4.605469 0.644531 7.5 C 0.644531 10.394531 3.714844 12.75 7.5 12.75 C 11.285156 12.75 14.355469 10.394531 14.355469 7.5 Z M 14.355469 7.5 "/>
<path style=" stroke:none;fill-rule:nonzero;fill:rgb(100%,100%,100%);fill-opacity:1;" d="M 0.644531 7.5 C 0.644531 11.285156 3.714844 14.355469 7.5 14.355469 C 11.285156 14.355469 14.355469 11.285156 14.355469 7.5 Z M 0.644531 7.5 "/>
<path style=" stroke:none;fill-rule:nonzero;fill:rgb(84.705882%,89.803922%,91.764706%);fill-opacity:1;" d="M 7.5 12.75 C 11.285156 12.75 14.355469 10.394531 14.355469 7.5 L 0.644531 7.5 C 0.644531 10.394531 3.714844 12.75 7.5 12.75 Z M 7.5 12.75 "/>
<path style=" stroke:none;fill-rule:nonzero;fill:rgb(20%,21.176471%,22.745098%);fill-opacity:1;" d="M 7.5 14.519531 C 3.632812 14.519531 0.480469 11.367188 0.480469 7.5 C 0.480469 3.632812 3.632812 0.480469 7.5 0.480469 C 11.367188 0.480469 14.519531 3.632812 14.519531 7.5 C 14.519531 11.367188 11.367188 14.519531 7.5 14.519531 Z M 7.5 0.816406 C 3.816406 0.816406 0.816406 3.816406 0.816406 7.5 C 0.816406 11.183594 3.816406 14.183594 7.5 14.183594 C 11.183594 14.183594 14.183594 11.183594 14.183594 7.5 C 14.183594 3.816406 11.183594 0.816406 7.5 0.816406 Z M 7.5 0.816406 "/>
<path style=" stroke:none;fill-rule:nonzero;fill:rgb(50.196078%,58.039216%,60.784314%);fill-opacity:1;" d="M 14.355469 7.5 C 14.355469 6.46875 11.285156 5.636719 7.5 5.636719 C 3.714844 5.636719 0.644531 6.46875 0.644531 7.5 C 0.644531 8.53125 3.714844 9.363281 7.5 9.363281 C 11.285156 9.363281 14.355469 8.53125 14.355469 7.5 Z M 14.355469 7.5 "/>
<path style=" stroke:none;fill-rule:nonzero;fill:rgb(38.823529%,47.45098%,49.803922%);fill-opacity:1;" d="M 12.09375 7.5 C 12.09375 6.808594 10.035156 6.253906 7.5 6.253906 C 4.964844 6.253906 2.90625 6.808594 2.90625 7.5 C 2.90625 8.191406 4.964844 8.746094 7.5 8.746094 C 10.035156 8.746094 12.09375 8.191406 12.09375 7.5 Z M 12.09375 7.5 "/>
<path style=" stroke:none;fill-rule:nonzero;fill:rgb(24.313725%,31.372549%,32.941176%);fill-opacity:1;" d="M 0.644531 7.5 C 0.644531 6.46875 3.714844 5.636719 7.5 5.636719 C 11.285156 5.636719 14.355469 6.46875 14.355469 7.5 "/>
<path style=" stroke:none;fill-rule:nonzero;fill:rgb(20%,21.176471%,22.745098%);fill-opacity:1;" d="M 7.5 9.527344 C 5.652344 9.527344 3.917969 9.332031 2.613281 8.976562 C 1.640625 8.714844 0.480469 8.246094 0.480469 7.5 C 0.480469 6.753906 1.640625 6.285156 2.613281 6.023438 C 3.917969 5.667969 5.652344 5.472656 7.5 5.472656 C 9.347656 5.472656 11.082031 5.667969 12.386719 6.023438 C 13.359375 6.285156 14.519531 6.753906 14.519531 7.5 C 14.519531 8.246094 13.359375 8.714844 12.386719 8.976562 C 11.082031 9.332031 9.347656 9.527344 7.5 9.527344 Z M 7.5 5.800781 C 3.5625 5.800781 0.816406 6.699219 0.816406 7.5 C 0.816406 8.300781 3.5625 9.199219 7.5 9.199219 C 11.4375 9.199219 14.183594 8.300781 14.183594 7.5 C 14.183594 6.699219 11.4375 5.800781 7.5 5.800781 Z M 7.5 5.800781 "/>
<path style=" stroke:none;fill-rule:nonzero;fill:rgb(20%,21.176471%,22.745098%);fill-opacity:1;" d="M 14.355469 7.664062 L 0.644531 7.664062 C 0.558594 7.664062 0.480469 7.59375 0.480469 7.5 C 0.480469 7.40625 0.558594 7.335938 0.644531 7.335938 L 14.355469 7.335938 C 14.441406 7.335938 14.519531 7.40625 14.519531 7.5 C 14.519531 7.59375 14.441406 7.664062 14.355469 7.664062 Z M 14.355469 7.664062 "/>
</g>
</svg>
