<?xml version="1.0" encoding="UTF-8"?>
<svg xmlns="http://www.w3.org/2000/svg" xmlns:xlink="http://www.w3.org/1999/xlink" width="15px" height="15px" viewBox="0 0 15 15" version="1.1">
<g id="surface1">
<path style=" stroke:none;fill-rule:nonzero;fill:rgb(0.392157%,0.392157%,0.392157%);fill-opacity:1;" d="M 0 7.496094 C 0.0117188 3.542969 3.375 0.363281 7.523438 0.375 C 11.671875 0.394531 15.011719 3.574219 15 7.511719 C 14.988281 11.449219 11.625 14.636719 7.488281 14.625 C 3.339844 14.613281 -0.0117188 11.425781 0 7.496094 Z M 0 7.496094 "/>
<path style=" stroke:none;fill-rule:nonzero;fill:rgb(100%,100%,100%);fill-opacity:1;" d="M 2.847656 8.039062 C 3.441406 8.039062 4.03125 8.039062 4.617188 8.035156 C 4.734375 8.035156 4.78125 8.0625 4.816406 8.179688 C 5.121094 9.332031 6.234375 10.144531 7.5 10.148438 C 8.765625 10.148438 9.867188 9.339844 10.195312 8.179688 C 10.222656 8.0625 10.269531 8.035156 10.386719 8.035156 C 11.574219 8.039062 12.753906 8.039062 13.941406 8.035156 C 14.074219 8.035156 14.097656 8.058594 14.085938 8.191406 C 13.800781 10.746094 11.835938 12.980469 9.09375 13.597656 C 6.847656 14.109375 4.828125 13.628906 3.089844 12.175781 C 1.898438 11.191406 1.214844 9.925781 0.957031 8.449219 C 0.878906 8.039062 0.878906 8.039062 1.324219 8.039062 Z M 2.847656 8.039062 "/>
<path style=" stroke:none;fill-rule:nonzero;fill:rgb(92.156863%,12.941176%,15.294118%);fill-opacity:1;" d="M 12.140625 6.960938 C 11.566406 6.960938 10.992188 6.957031 10.417969 6.960938 C 10.277344 6.960938 10.21875 6.914062 10.183594 6.796875 C 9.855469 5.707031 8.859375 4.921875 7.734375 4.863281 C 6.46875 4.792969 5.402344 5.414062 4.921875 6.492188 C 4.910156 6.527344 4.894531 6.5625 4.878906 6.589844 C 4.746094 6.960938 4.746094 6.960938 4.332031 6.960938 C 3.269531 6.960938 2.203125 6.957031 1.136719 6.960938 C 0.980469 6.960938 0.910156 6.949219 0.9375 6.761719 C 1.3125 4.324219 2.683594 2.589844 5.085938 1.664062 C 7.664062 0.667969 10.523438 1.332031 12.398438 3.28125 C 13.339844 4.265625 13.886719 5.417969 14.0625 6.738281 C 14.097656 6.960938 14.089844 6.960938 13.851562 6.960938 C 13.277344 6.960938 12.714844 6.960938 12.140625 6.960938 Z M 12.140625 6.960938 "/>
<path style=" stroke:none;fill-rule:nonzero;fill:rgb(100%,100%,100%);fill-opacity:1;" d="M 7.519531 9.351562 C 6.457031 9.363281 5.566406 8.535156 5.554688 7.550781 C 5.542969 6.496094 6.398438 5.652344 7.488281 5.648438 C 8.554688 5.644531 9.433594 6.46875 9.449219 7.488281 C 9.46875 8.496094 8.589844 9.339844 7.519531 9.351562 Z M 7.519531 9.351562 "/>
<path style=" stroke:none;fill-rule:nonzero;fill:rgb(0.392157%,0.392157%,0.392157%);fill-opacity:1;" d="M 7.519531 6.589844 C 8.058594 6.597656 8.464844 7.003906 8.460938 7.523438 C 8.449219 8.019531 8.027344 8.414062 7.488281 8.414062 C 7.230469 8.410156 6.988281 8.308594 6.816406 8.136719 C 6.632812 7.96875 6.539062 7.734375 6.539062 7.496094 C 6.550781 6.984375 6.972656 6.585938 7.519531 6.589844 Z M 7.519531 6.589844 "/>
</g>
</svg>
